<svg xmlns="http://www.w3.org/2000/svg" viewBox="0 0 1600 760" preserveAspectRatio="xMidYMid slice">
  <defs>
    <radialGradient id="glow" cx="50%" cy="45%" r="70%">
      <stop offset="0" stop-color="#073a82" stop-opacity="0.75"/>
      <stop offset="0.55" stop-color="#032b64" stop-opacity="0.35"/>
      <stop offset="1" stop-color="#020d24" stop-opacity="0"/>
    </radialGradient>
    <filter id="blur"><feGaussianBlur stdDeviation="5"/></filter>
    <pattern id="dots" width="9" height="9" patternUnits="userSpaceOnUse">
      <circle cx="2" cy="2" r="1.3" fill="#16a9ff" opacity="0.82"/>
    </pattern>
    <linearGradient id="line" x1="0" x2="1">
      <stop offset="0" stop-color="#2f5bff" stop-opacity="0"/>
      <stop offset="0.5" stop-color="#59d2e8" stop-opacity="0.75"/>
      <stop offset="1" stop-color="#2f5bff" stop-opacity="0"/>
    </linearGradient>
  </defs>
  <rect width="1600" height="760" fill="#020d24"/>
  <rect width="1600" height="760" fill="url(#glow)"/>
  <g opacity="0.9" transform="translate(0 18)">
    <path fill="url(#dots)" opacity="0.62" d="M120 160c70-65 170-86 282-70 74 10 134 30 202 15 53-12 89-46 147-54 68-9 132 23 192 53 73 37 121 33 210 18 99-17 208-10 298 27 47 20 89 51 111 95-81-21-169-16-245 14-80 31-142 90-222 120-84 32-178 29-264-4-83-31-156-88-243-105-83-16-162 9-238 40-85 35-178 71-271 50-40-9-84-31-100-72 52-26 99-55 141-127z"/>
    <path fill="url(#dots)" opacity="0.55" d="M78 327c77-50 164-52 250-16 80 33 142 92 230 101 83 9 166-32 251-28 107 5 195 79 299 102 126 28 245-32 365-65 56-15 113-24 170-22-34 58-105 96-175 112-119 28-236-16-354-21-106-4-197 27-289 76-84 45-176 91-272 86-90-5-165-54-235-104-74-52-146-96-239-94-40 1-78 8-116 19 2-55 40-112 115-146z"/>
    <path fill="url(#dots)" opacity="0.48" d="M1000 520c97-60 212-75 319-43 83 25 154 83 224 135-95 48-205 59-309 30-86-24-161-73-234-122z"/>
  </g>
  <g fill="none" stroke="url(#line)" stroke-width="1.7" opacity="0.66">
    <path d="M45 482C235 280 410 260 648 392S1051 520 1285 312s310-28 360 55"/>
    <path d="M250 420C435 220 586 196 742 318s329 127 478-10 252-141 372-14"/>
    <path d="M145 284c150 75 305 85 465 32 201-66 391-61 573 46 101 59 204 82 337 56"/>
  </g>
  <g fill="#58d9ff" opacity="0.95">
    <circle cx="186" cy="311" r="5"/><circle cx="285" cy="430" r="4"/><circle cx="470" cy="284" r="4"/><circle cx="660" cy="388" r="5"/><circle cx="832" cy="346" r="5"/><circle cx="1036" cy="406" r="4"/><circle cx="1235" cy="316" r="6"/><circle cx="1398" cy="430" r="4"/>
  </g>
  <g fill="#58d9ff" opacity="0.45" filter="url(#blur)">
    <circle cx="186" cy="311" r="16"/><circle cx="660" cy="388" r="15"/><circle cx="1235" cy="316" r="21"/>
  </g>
</svg>
